<svg width="462" height="462" viewBox="0 0 462 462" fill="none" xmlns="http://www.w3.org/2000/svg">
<path d="M346.297 174.6C322.199 132.857 268.821 118.554 227.078 142.653C187.265 165.642 172.416 215.256 192.036 256.015C175.206 220.596 188.163 177.616 222.712 157.672C259.053 136.687 305.529 149.141 326.508 185.483C347.493 221.824 335.038 268.299 298.697 289.279C262.422 310.221 216.064 297.856 195.023 261.675C195.061 261.741 195.099 261.807 195.136 261.877C219.235 303.62 272.613 317.923 314.36 293.824C356.103 269.725 370.406 216.347 346.307 174.6H346.297Z" fill="#565656"/>
<path d="M270.458 319.716C271.507 319.269 272.189 318.234 272.514 316.611V285.506C272.189 283.888 271.503 282.838 270.458 282.363H279.096C278.024 282.838 277.327 283.897 277.003 285.539V316.719C277.351 318.262 278.038 319.26 279.059 319.711H270.458V319.716Z" fill="white"/>
<path d="M221.484 319.716C222.529 319.269 223.216 318.234 223.54 316.611V285.506C223.216 283.888 222.529 282.838 221.484 282.363H241.076V286.028C240.751 284.382 240.078 283.323 239.057 282.853H228.066V300.473H235.133C236.182 299.998 236.851 298.558 237.152 296.911V303.79C236.827 302.143 236.154 301.028 235.133 300.553H228.066V319.081H239.956C240.455 318.507 240.803 317.66 241.005 316.54V319.716H221.489H221.484Z" fill="white"/>
<path d="M202.396 287.699V286.052H210.051L209.802 285.958C209.628 284.363 209.477 286.777 208.851 286.65H208.47V316.724C208.795 318.267 209.468 319.265 210.489 319.716H201.888C202.932 319.269 203.619 318.234 203.944 316.611V286.65H203.662C203.041 286.899 202.613 286.226 202.391 287.699H202.396Z" fill="white"/>
<path d="M184.15 282.442C186.893 282.442 189.396 283.275 191.664 284.945C193.932 286.616 195.738 288.869 197.084 291.711C198.43 294.529 199.102 297.654 199.102 301.093C199.102 304.532 198.43 307.661 197.084 310.475C195.738 313.293 193.932 315.547 191.664 317.24C189.396 318.911 186.893 319.743 184.15 319.743C181.407 319.743 178.866 318.911 176.598 317.24C174.331 315.547 172.524 313.288 171.178 310.475C169.833 307.656 169.16 304.532 169.16 301.093C169.16 297.654 169.833 294.525 171.178 291.711C172.524 288.869 174.331 286.616 176.598 284.945C178.866 283.275 181.383 282.442 184.15 282.442ZM184.15 318.332C186.145 318.332 187.961 317.56 189.608 316.012C191.254 314.469 192.562 312.385 193.532 309.769C194.501 307.153 194.99 304.259 194.99 301.098C194.99 297.936 194.506 295.042 193.532 292.426C192.558 289.81 191.25 287.731 189.608 286.183C187.961 284.635 186.145 283.863 184.15 283.863C182.155 283.863 180.297 284.635 178.655 286.183C177.008 287.726 175.7 289.81 174.731 292.426C173.757 295.042 173.272 297.936 173.272 301.098C173.272 304.259 173.757 307.153 174.731 309.769C175.705 312.385 177.013 314.464 178.655 316.012C180.301 317.556 182.132 318.332 184.15 318.332ZM182.16 300.782C183.303 300.665 184.286 299.874 185.11 298.411C184.898 300.077 185.227 301.3 186.098 302.086C184.931 302.199 183.938 302.984 183.11 304.443C183.322 302.782 183.002 301.559 182.16 300.778V300.782Z" fill="white"/>
<path d="M237.137 224.481C240.177 224.481 242.953 225.408 245.465 227.257C247.978 229.106 249.982 231.609 251.474 234.757C252.965 237.876 253.713 241.344 253.713 245.155C253.713 248.966 252.97 252.434 251.474 255.553C249.982 258.672 247.978 261.176 245.465 263.053C242.953 264.902 240.177 265.829 237.137 265.829C234.098 265.829 231.285 264.902 228.767 263.053C226.255 261.176 224.251 258.677 222.759 255.553C221.268 252.434 220.52 248.966 220.52 245.155C220.52 241.344 221.268 237.876 222.759 234.757C224.251 231.609 226.255 229.106 228.767 227.257C231.28 225.408 234.07 224.481 237.137 224.481ZM237.137 264.253C239.349 264.253 241.363 263.396 243.188 261.684C245.014 259.971 246.463 257.666 247.54 254.763C248.618 251.86 249.154 248.66 249.154 245.15C249.154 241.64 248.618 238.436 247.54 235.538C246.463 232.64 245.014 230.33 243.188 228.622C241.367 226.909 239.349 226.053 237.137 226.053C234.926 226.053 232.87 226.909 231.049 228.622C229.228 230.334 227.775 232.64 226.697 235.538C225.62 238.436 225.083 241.64 225.083 245.15C225.083 248.66 225.62 251.86 226.697 254.763C227.775 257.661 229.224 259.971 231.049 261.684C232.875 263.396 234.903 264.253 237.137 264.253ZM234.921 244.901C236.182 244.713 237.02 244.529 237.867 242.873C237.716 244.727 238.347 245.324 239.349 246.157C238.064 246.336 237.17 246.651 236.328 248.307C236.479 246.454 235.895 245.724 234.926 244.906L234.921 244.901Z" fill="white"/>
<path d="M215.509 235.417C215.509 237.492 215.066 239.19 214.182 240.522C213.297 241.853 212.121 242.846 210.658 243.509C209.19 244.173 207.562 244.53 205.765 244.587L215.885 262.508C217.019 264.305 218.346 265.411 219.865 265.825H209.825C210.432 265.547 210.931 265.105 211.321 264.498L200.076 244.582H196.054V262.588C196.439 264.249 197.187 265.326 198.293 265.825H188.751C189.914 265.326 190.676 264.178 191.033 262.381V227.865C190.676 226.068 189.914 224.906 188.751 224.379H204.89C208.376 224.379 211.015 225.249 212.813 226.99C214.61 228.731 215.509 231.54 215.509 235.412V235.417ZM205.177 244.455C206.668 244.455 207.858 243.396 208.743 242.098C209.656 240.799 210.263 239.195 210.568 237.285C210.733 236.344 210.818 235.403 210.818 234.462C210.818 233.521 210.695 232.344 210.446 230.933C210.225 229.521 209.642 228.166 208.705 226.868C207.764 225.569 206.494 224.591 204.89 224.591H196.054V244.45H205.181L205.177 244.455Z" fill="white"/>
<path d="M211.411 201.615C211.411 205.619 210.752 209.374 209.435 212.87C208.117 216.365 206.038 219.231 203.201 221.461C200.364 223.691 196.609 224.806 191.946 224.806L174.834 224.651V260.018C175.545 263.058 176.938 265.038 179.017 265.951L161.487 265.805C163.613 264.893 165.053 262.935 165.712 259.642V196.374C165.053 193.081 163.66 190.949 161.529 189.985H179.093C176.914 190.949 175.493 193.076 174.834 196.374V224.383H191.946C194.026 224.383 195.748 222.938 197.117 221.315C198.486 219.692 199.55 217.716 200.312 215.382C201.121 212.997 201.681 210.564 201.987 208.08C202.241 205.949 202.368 204.076 202.368 202.453V201.615C202.062 193.655 199.757 187.397 195.447 182.833C191.137 178.269 185.839 175.329 179.554 174.011C176.815 173.404 174.077 173.099 171.339 173.099C167.843 173.099 163.707 173.781 158.941 175.15C154.175 176.467 149.818 179.408 145.861 183.972C142.262 188.131 140.46 193.429 140.46 199.865C140.46 200.425 140.484 201.004 140.535 201.615C140.94 206.838 142.765 211.425 146.012 215.377C149.258 219.33 153.079 221.734 158.96 222.647C160.55 222.557 161.439 220.826 161.491 219.405C161.783 219.217 161.745 219.245 161.985 219.066V228.015C161.783 227.78 161.783 227.761 161.618 227.606C161.336 225.117 159.299 223.813 158.64 223.748C152.759 222.736 148.148 220.172 144.798 216.069C141.453 211.91 139.5 207.097 138.945 201.62C138.841 200.453 138.794 199.315 138.794 198.2C138.794 191.053 140.949 185.068 145.259 180.255C149.517 175.437 155.323 172.219 162.672 170.596C166.168 169.786 169.692 169.377 173.244 169.377C177.098 169.377 181.864 170.064 187.538 171.428C193.217 172.797 198.59 176.067 203.657 181.238C208.724 186.357 211.312 193.151 211.416 201.62L211.411 201.615Z" fill="white"/>
<path d="M394.801 300.473H226.081V300.553H394.801V300.473Z" fill="white"/>
<path d="M400 291C400 293.367 400 300.556 400 300.556H388.784C388.784 300.556 395.088 297.131 398.659 291.508C399.304 291.386 399.412 291.263 400 291.005V291Z" fill="white"/>
<path d="M139.839 265.655H41.199V265.735H139.839V265.655Z" fill="white"/>
<path d="M35.9998 256.185C35.9998 258.551 35.9998 265.74 35.9998 265.74H47.2164C47.2164 265.74 40.9117 262.315 37.3407 256.693C36.6961 256.57 36.5879 256.448 35.9998 256.189V256.185Z" fill="white"/>
<path d="M312.821 301.502C312.882 301.469 312.925 301.422 312.958 301.361C312.991 301.3 313.005 301.234 313.005 301.168V298.618C313.005 298.548 312.991 298.486 312.958 298.425C312.925 298.364 312.878 298.317 312.821 298.284V298.256H313.715C314.073 298.256 314.383 298.298 314.637 298.378C314.891 298.458 315.103 298.576 315.263 298.722C315.428 298.868 315.545 299.042 315.621 299.239C315.696 299.437 315.733 299.653 315.733 299.888C315.733 300.157 315.663 300.406 315.526 300.646C315.39 300.886 315.174 301.084 314.891 301.244C314.722 301.333 314.529 301.403 314.313 301.455C314.096 301.507 313.852 301.531 313.574 301.531H312.816V301.502H312.821ZM313.574 301.479C313.856 301.479 314.11 301.436 314.336 301.352C314.562 301.267 314.755 301.154 314.915 301.008C315.075 300.862 315.197 300.698 315.287 300.505C315.376 300.312 315.418 300.105 315.423 299.888C315.423 299.653 315.39 299.432 315.319 299.239C315.244 299.042 315.136 298.877 314.985 298.74C314.835 298.604 314.651 298.496 314.426 298.421C314.204 298.345 313.946 298.308 313.649 298.308H313.296V301.483H313.574V301.479Z" fill="#AFAFAF"/>
<path d="M315.931 300.524C315.917 300.369 315.931 300.218 315.978 300.067C316.025 299.917 316.1 299.785 316.209 299.663C316.317 299.545 316.453 299.446 316.618 299.376C316.787 299.301 316.985 299.268 317.215 299.268C317.38 299.268 317.531 299.291 317.667 299.338C317.804 299.385 317.917 299.446 318.011 299.522C318.105 299.597 318.175 299.682 318.227 299.771C318.279 299.865 318.302 299.955 318.302 300.039C318.302 300.1 318.288 300.157 318.255 300.199C318.218 300.246 318.175 300.284 318.128 300.312C318.058 300.354 317.968 300.392 317.865 300.425C317.761 300.458 317.648 300.491 317.535 300.524C317.422 300.557 317.305 300.59 317.183 300.623C317.065 300.656 316.957 300.698 316.858 300.745C316.759 300.792 316.679 300.848 316.618 300.91C316.557 300.971 316.514 301.051 316.505 301.135C316.613 301.253 316.736 301.342 316.877 301.394C317.018 301.451 317.164 301.474 317.314 301.474C317.493 301.474 317.662 301.441 317.827 301.375C317.992 301.31 318.119 301.22 318.218 301.103L318.255 301.131C318.194 301.215 318.109 301.286 318.006 301.352C317.917 301.408 317.808 301.46 317.672 301.507C317.535 301.554 317.375 301.578 317.187 301.573C316.994 301.573 316.82 301.545 316.67 301.484C316.519 301.422 316.392 301.342 316.284 301.244C316.176 301.145 316.096 301.032 316.039 300.905C315.983 300.778 315.945 300.646 315.936 300.51L315.931 300.524ZM317.154 299.329C317.023 299.329 316.9 299.357 316.783 299.413C316.665 299.47 316.566 299.55 316.482 299.649C316.397 299.747 316.331 299.86 316.284 299.992C316.237 300.124 316.218 300.26 316.223 300.401C316.232 300.557 316.256 300.688 316.298 300.806C316.34 300.924 316.397 301.027 316.463 301.112C316.467 301.027 316.5 300.952 316.557 300.891C316.613 300.825 316.684 300.773 316.768 300.726C316.853 300.679 316.952 300.637 317.055 300.604C317.159 300.566 317.267 300.533 317.371 300.5C317.474 300.467 317.573 300.43 317.662 300.397C317.752 300.364 317.827 300.321 317.884 300.279C317.935 300.237 317.973 300.185 317.992 300.124C318.011 300.058 318.015 299.997 317.996 299.936C317.945 299.747 317.851 299.602 317.709 299.493C317.568 299.385 317.38 299.333 317.15 299.333L317.154 299.329Z" fill="#AFAFAF"/>
<path d="M319.944 302.044C320.005 302.011 320.052 301.964 320.085 301.907C320.118 301.851 320.137 301.785 320.137 301.719V299.033C320.128 298.896 320.066 298.797 319.949 298.722V298.694C320.029 298.68 320.109 298.656 320.193 298.628C320.273 298.6 320.353 298.562 320.433 298.524V299.15C320.509 299.004 320.617 298.891 320.758 298.797C320.894 298.708 321.059 298.651 321.247 298.637C321.407 298.623 321.572 298.628 321.732 298.651C321.892 298.675 322.038 298.727 322.16 298.802C322.287 298.877 322.381 298.986 322.457 299.127C322.527 299.268 322.555 299.447 322.541 299.663C322.527 299.851 322.475 300.002 322.377 300.11C322.278 300.223 322.155 300.312 322.014 300.378C321.873 300.444 321.713 300.501 321.548 300.538C321.379 300.576 321.224 300.618 321.073 300.66C320.979 300.684 320.894 300.717 320.814 300.745C320.735 300.778 320.664 300.82 320.607 300.867C320.551 300.915 320.504 300.976 320.471 301.042C320.438 301.107 320.424 301.187 320.429 301.282V301.719C320.429 301.785 320.448 301.846 320.48 301.903C320.513 301.959 320.556 302.006 320.612 302.039V302.067H319.944V302.039V302.044ZM320.433 300.99C320.499 300.877 320.589 300.788 320.702 300.726C320.815 300.66 320.942 300.609 321.073 300.562C321.205 300.515 321.346 300.472 321.483 300.435C321.624 300.392 321.746 300.341 321.859 300.275C321.972 300.209 322.061 300.119 322.137 300.011C322.212 299.903 322.245 299.757 322.25 299.569C322.25 299.414 322.226 299.282 322.184 299.174C322.137 299.061 322.075 298.971 321.991 298.901C321.906 298.83 321.812 298.778 321.699 298.746C321.586 298.713 321.464 298.694 321.332 298.694C321.21 298.694 321.097 298.717 320.989 298.755C320.88 298.797 320.786 298.858 320.702 298.934C320.617 299.009 320.556 299.103 320.504 299.207C320.457 299.315 320.433 299.432 320.433 299.559V300.99Z" fill="#AFAFAF"/>
<path d="M322.876 298.85C322.843 298.793 322.8 298.751 322.744 298.718V298.69C322.824 298.676 322.904 298.652 322.984 298.624C323.064 298.596 323.144 298.558 323.219 298.521V299.88C323.299 299.513 323.407 299.231 323.544 299.038C323.685 298.845 323.826 298.728 323.977 298.68C324.038 298.671 324.094 298.666 324.146 298.666C324.245 298.666 324.32 298.68 324.377 298.713C324.433 298.746 324.48 298.779 324.513 298.817C324.551 298.859 324.579 298.911 324.593 298.967H324.264C324.259 298.93 324.245 298.897 324.231 298.864C324.217 298.84 324.193 298.817 324.16 298.793C324.132 298.77 324.09 298.76 324.038 298.76C324.005 298.76 323.972 298.765 323.93 298.775C323.859 298.808 323.788 298.855 323.718 298.92C323.647 298.986 323.581 299.076 323.52 299.189C323.459 299.302 323.403 299.438 323.351 299.598C323.299 299.758 323.257 299.946 323.219 300.163V300.567C323.219 300.638 323.238 300.699 323.271 300.755C323.304 300.812 323.351 300.859 323.407 300.892V300.92H322.739V300.892C322.796 300.859 322.838 300.812 322.871 300.755C322.904 300.699 322.923 300.638 322.923 300.572V299.033C322.923 298.972 322.904 298.911 322.871 298.859L322.876 298.85Z" fill="#AFAFAF"/>
<path d="M325.722 300.975C325.548 300.975 325.379 300.947 325.223 300.886C325.068 300.825 324.927 300.745 324.809 300.641C324.692 300.538 324.598 300.415 324.527 300.274C324.457 300.133 324.424 299.983 324.424 299.823C324.424 299.663 324.456 299.512 324.518 299.371C324.584 299.23 324.668 299.107 324.781 299.004C324.894 298.9 325.026 298.82 325.181 298.759C325.336 298.698 325.496 298.67 325.675 298.67C325.854 298.67 326.023 298.698 326.179 298.759C326.338 298.82 326.475 298.9 326.593 299.004C326.71 299.107 326.804 299.23 326.875 299.371C326.945 299.512 326.978 299.663 326.978 299.823C326.978 299.983 326.945 300.133 326.884 300.274C326.818 300.415 326.734 300.538 326.621 300.641C326.508 300.745 326.376 300.829 326.221 300.886C326.066 300.947 325.901 300.975 325.722 300.975ZM325.27 298.9C325.139 298.971 325.026 299.056 324.927 299.164C324.828 299.272 324.758 299.39 324.706 299.517C324.654 299.644 324.631 299.78 324.635 299.926C324.635 300.072 324.673 300.218 324.739 300.359C324.809 300.524 324.927 300.651 325.082 300.74C325.238 300.83 325.412 300.872 325.595 300.872C325.769 300.872 325.943 300.83 326.113 300.745C326.249 300.674 326.362 300.59 326.461 300.481C326.56 300.373 326.63 300.255 326.682 300.128C326.734 299.997 326.757 299.86 326.757 299.719C326.757 299.578 326.724 299.427 326.663 299.282C326.593 299.117 326.475 298.99 326.32 298.9C326.164 298.811 325.99 298.769 325.802 298.769C325.614 298.769 325.44 298.811 325.266 298.9H325.27Z" fill="#AFAFAF"/>
<path d="M327.19 298.628C327.138 298.506 327.105 298.388 327.1 298.271C327.091 298.153 327.11 298.05 327.147 297.96C327.185 297.866 327.246 297.795 327.331 297.739C327.416 297.683 327.524 297.654 327.656 297.654C327.726 297.654 327.806 297.659 327.891 297.668C327.976 297.678 328.06 297.697 328.135 297.725C328.211 297.748 328.277 297.786 328.333 297.828C328.39 297.871 328.427 297.922 328.441 297.984H328.126C328.121 297.932 328.098 297.89 328.065 297.847C328.037 297.814 327.994 297.781 327.933 297.753C327.872 297.725 327.792 297.706 327.693 297.706C327.599 297.706 327.519 297.73 327.458 297.777C327.397 297.824 327.35 297.885 327.317 297.96C327.289 298.035 327.274 298.125 327.279 298.224C327.284 298.322 327.307 298.421 327.35 298.525C327.369 298.567 327.387 298.609 327.406 298.647C327.425 298.685 327.439 298.722 327.458 298.755H327.886V298.807H327.481C327.505 298.854 327.524 298.901 327.547 298.953C327.566 299.005 327.585 299.056 327.599 299.122C327.613 299.183 327.623 299.254 327.632 299.329C327.641 299.405 327.646 299.494 327.646 299.593V300.604C327.651 300.665 327.674 300.722 327.703 300.774C327.736 300.825 327.778 300.868 327.83 300.901V300.929H327.157V300.901C327.218 300.868 327.26 300.821 327.293 300.769C327.326 300.717 327.345 300.656 327.345 300.585V299.499C327.345 299.405 327.345 299.325 327.345 299.254C327.345 299.183 327.336 299.127 327.331 299.075C327.322 299.023 327.312 298.976 327.303 298.934C327.293 298.892 327.279 298.849 327.26 298.807H327.082V298.755H327.242C327.242 298.755 327.227 298.722 327.218 298.703C327.209 298.685 327.199 298.666 327.19 298.642V298.628Z" fill="#AFAFAF"/>
<path d="M328.602 298.689C328.588 298.807 328.574 298.943 328.559 299.108C328.545 299.273 328.527 299.428 328.512 299.583C328.498 299.738 328.484 299.87 328.475 299.988C328.465 300.105 328.461 300.176 328.461 300.195C328.456 300.294 328.461 300.383 328.489 300.468C328.517 300.552 328.555 300.628 328.602 300.689C328.649 300.75 328.71 300.802 328.776 300.839C328.842 300.877 328.917 300.896 328.992 300.896C329.082 300.896 329.171 300.868 329.265 300.811C329.359 300.755 329.449 300.661 329.533 300.529C329.618 300.397 329.693 300.233 329.764 300.021C329.835 299.809 329.886 299.56 329.929 299.259V299.009C329.914 298.882 329.849 298.783 329.74 298.713V298.685H330.22V300.585C330.22 300.651 330.244 300.708 330.277 300.759C330.31 300.811 330.357 300.854 330.409 300.886V300.915H329.929V299.583C329.891 299.809 329.839 300.007 329.778 300.176C329.712 300.345 329.642 300.487 329.562 300.604C329.482 300.722 329.397 300.807 329.312 300.868C329.223 300.929 329.138 300.962 329.053 300.971C328.978 300.981 328.894 300.971 328.799 300.957C328.705 300.938 328.616 300.901 328.531 300.854C328.447 300.807 328.371 300.736 328.31 300.656C328.249 300.576 328.202 300.472 328.183 300.355C328.178 300.317 328.174 300.28 328.169 300.247C328.169 300.209 328.169 300.176 328.174 300.138C328.174 300.12 328.174 300.101 328.178 300.077C328.178 300.058 328.183 300.035 328.183 300.007C328.183 299.978 328.188 299.945 328.197 299.913C328.197 299.889 328.202 299.866 328.202 299.842C328.202 299.818 328.202 299.795 328.211 299.767C328.225 299.649 328.235 299.522 328.249 299.376C328.263 299.23 328.272 299.103 328.287 299C328.287 298.873 328.23 298.783 328.117 298.732V298.703H328.602V298.689Z" fill="#AFAFAF"/>
<path d="M330.663 298.694C330.743 298.68 330.823 298.656 330.907 298.628C330.987 298.6 331.067 298.562 331.147 298.524V300.002C331.19 299.776 331.241 299.583 331.303 299.414C331.368 299.249 331.439 299.108 331.514 299C331.59 298.891 331.674 298.802 331.764 298.746C331.853 298.689 331.938 298.656 332.022 298.647C332.098 298.637 332.182 298.647 332.276 298.661C332.371 298.675 332.46 298.713 332.545 298.764C332.629 298.816 332.705 298.882 332.766 298.962C332.827 299.042 332.874 299.145 332.893 299.268C332.907 299.334 332.907 299.404 332.893 299.484C332.874 299.677 332.855 299.865 332.836 300.058C332.818 300.251 332.799 300.439 332.785 300.632C332.785 300.759 332.841 300.844 332.949 300.896V300.924H332.281V300.896C332.333 300.863 332.38 300.825 332.422 300.783C332.465 300.736 332.488 300.689 332.498 300.632C332.507 300.533 332.516 300.416 332.53 300.289C332.545 300.162 332.554 300.035 332.563 299.917C332.573 299.799 332.582 299.691 332.592 299.602C332.601 299.512 332.606 299.456 332.606 299.428C332.61 299.334 332.606 299.244 332.578 299.16C332.549 299.075 332.512 299 332.465 298.934C332.418 298.868 332.356 298.821 332.291 298.783C332.225 298.746 332.149 298.727 332.069 298.727C331.98 298.727 331.891 298.755 331.797 298.816C331.702 298.877 331.613 298.971 331.528 299.103C331.444 299.235 331.368 299.404 331.298 299.616C331.227 299.828 331.175 300.082 331.133 300.378V300.609C331.138 300.67 331.161 300.722 331.19 300.773C331.223 300.825 331.265 300.867 331.317 300.896V300.924H330.644V300.896C330.7 300.863 330.747 300.82 330.78 300.769C330.813 300.717 330.832 300.66 330.837 300.599V299.033C330.827 298.906 330.761 298.807 330.644 298.731V298.703L330.663 298.694Z" fill="#AFAFAF"/>
<path d="M333.147 299.955C333.147 299.79 333.184 299.654 333.255 299.55C333.325 299.447 333.419 299.362 333.532 299.301C333.645 299.24 333.777 299.188 333.918 299.15C334.064 299.113 334.205 299.08 334.346 299.047C334.487 299.014 334.624 298.976 334.756 298.939C334.887 298.896 334.996 298.84 335.08 298.765C335.141 298.713 335.184 298.656 335.212 298.586C335.24 298.515 335.254 298.445 335.25 298.369V297.471C335.33 297.513 335.41 297.546 335.49 297.579C335.57 297.612 335.65 297.635 335.734 297.649V297.678C335.617 297.748 335.551 297.847 335.541 297.974V300.59C335.546 300.651 335.57 300.712 335.598 300.764C335.626 300.816 335.673 300.863 335.725 300.896V300.924H335.508C335.447 300.924 335.391 300.905 335.344 300.868C335.297 300.83 335.264 300.783 335.254 300.727V300.477C335.226 300.524 335.189 300.576 335.146 300.628C335.104 300.684 335.047 300.736 334.982 300.783C334.916 300.83 334.836 300.877 334.746 300.915C334.657 300.952 334.549 300.976 334.431 300.985C334.266 300.999 334.111 300.995 333.956 300.971C333.801 300.948 333.664 300.896 333.542 300.821C333.419 300.745 333.321 300.637 333.25 300.496C333.175 300.355 333.142 300.176 333.142 299.96L333.147 299.955ZM335.259 298.652C335.193 298.769 335.104 298.854 334.986 298.915C334.869 298.976 334.742 299.028 334.6 299.07C334.459 299.113 334.318 299.155 334.177 299.193C334.031 299.23 333.904 299.282 333.791 299.348C333.678 299.414 333.589 299.499 333.523 299.607C333.457 299.715 333.429 299.861 333.443 300.044C333.457 300.209 333.485 300.345 333.532 300.454C333.579 300.562 333.641 300.656 333.721 300.722C333.801 300.788 333.89 300.839 333.998 300.868C334.106 300.896 334.224 300.915 334.356 300.915C334.431 300.915 334.511 300.91 334.586 300.887C334.666 300.868 334.742 300.839 334.817 300.802C334.958 300.731 335.066 300.628 335.146 300.491C335.226 300.355 335.264 300.209 335.264 300.054V298.746C335.264 298.746 335.264 298.713 335.264 298.699V298.652H335.259Z" fill="#AFAFAF"/>
<path d="M336.656 298.723V298.751C336.605 298.774 336.558 298.817 336.525 298.868C336.492 298.925 336.473 298.986 336.473 299.052V300.289C336.473 300.388 336.501 300.487 336.558 300.59C336.614 300.694 336.689 300.788 336.783 300.873C336.878 300.957 336.99 301.028 337.122 301.08C337.254 301.131 337.395 301.16 337.546 301.155C337.72 301.155 337.87 301.131 337.988 301.089C338.11 301.047 338.204 301 338.275 300.939C338.345 300.877 338.397 300.812 338.425 300.741C338.454 300.67 338.468 300.595 338.463 300.525C338.463 300.454 338.416 300.388 338.331 300.327C338.247 300.266 338.138 300.209 338.016 300.153C337.889 300.096 337.757 300.04 337.607 299.979C337.461 299.918 337.324 299.856 337.197 299.786C337.07 299.715 336.967 299.635 336.887 299.551C336.802 299.461 336.765 299.362 336.765 299.249C336.765 299.169 336.779 299.104 336.807 299.047C336.84 298.977 336.882 298.915 336.943 298.864C337.005 298.812 337.07 298.774 337.15 298.741C337.23 298.708 337.31 298.685 337.4 298.671C337.489 298.657 337.574 298.647 337.659 298.647C337.856 298.647 338.011 298.666 338.134 298.699C338.251 298.732 338.345 298.77 338.411 298.812C338.491 298.864 338.543 298.915 338.576 298.977H338.251C338.237 298.92 338.209 298.873 338.157 298.831C338.115 298.798 338.049 298.765 337.964 298.737C337.88 298.708 337.762 298.694 337.602 298.694C337.532 298.694 337.456 298.704 337.381 298.723C337.306 298.741 337.235 298.77 337.174 298.807C337.113 298.845 337.061 298.892 337.019 298.944C336.976 298.995 336.958 299.061 336.958 299.132C336.958 299.221 337 299.297 337.089 299.367C337.179 299.438 337.287 299.504 337.414 299.565C337.541 299.626 337.682 299.687 337.833 299.748C337.983 299.809 338.124 299.871 338.251 299.941C338.378 300.012 338.491 300.082 338.576 300.162C338.661 300.242 338.708 300.332 338.708 300.43C338.708 300.567 338.68 300.684 338.623 300.783C338.567 300.882 338.482 300.962 338.378 301.023C338.27 301.084 338.143 301.131 337.993 301.16C337.842 301.188 337.677 301.202 337.489 301.202C337.301 301.202 337.127 301.174 336.967 301.122C336.807 301.066 336.666 301 336.548 300.92C336.431 300.84 336.341 300.75 336.275 300.652C336.209 300.553 336.176 300.463 336.181 300.383V299.052C336.181 298.991 336.158 298.934 336.125 298.882C336.092 298.831 336.045 298.788 335.988 298.755V298.727H336.656V298.723ZM336.139 297.989C336.139 297.941 336.158 297.899 336.2 297.866C336.242 297.833 336.289 297.814 336.341 297.814C336.393 297.814 336.44 297.833 336.478 297.866C336.515 297.899 336.534 297.941 336.534 297.989C336.534 298.031 336.515 298.073 336.478 298.106C336.44 298.144 336.393 298.163 336.341 298.163C336.289 298.163 336.242 298.144 336.2 298.106C336.158 298.069 336.139 298.031 336.139 297.989Z" fill="#AFAFAF"/>
<path d="M184.667 201.837C186.704 201.738 188.078 201.578 189.683 199.065C189.146 201.997 190.064 203.055 191.527 204.537C189.447 204.622 187.975 204.98 186.366 207.487C186.902 204.556 186.088 203.3 184.667 201.832V201.837Z" fill="white"/>
<path d="M284.06 299.235C286.088 299.014 287.448 298.774 288.906 296.172C288.544 299.127 289.523 300.133 291.071 301.526C289.001 301.733 287.551 302.18 286.093 304.777C286.455 301.823 285.566 300.613 284.06 299.235Z" fill="white"/>
<path d="M306.79 320.756C307.839 321.433 343.935 325.898 340.557 295.269C338.313 274.892 320.712 273.391 320.712 273.391" stroke="white" stroke-width="0.235249" stroke-miterlimit="10"/>
<path d="M321.008 273.556C316.172 275.913 315.508 280.722 315.508 280.722C315.508 280.722 314.831 277.748 313.956 273.876C317.418 272.544 322.42 272.977 326.188 274.996C321.935 273.401 321.465 273.396 321.008 273.561V273.556Z" fill="white"/>
<path d="M284.681 306.739C285.105 306.687 285.387 306.635 285.688 306.085C285.618 306.706 285.825 306.913 286.154 307.2C285.721 307.247 285.42 307.346 285.119 307.892C285.19 307.271 285.001 307.021 284.681 306.739Z" fill="white"/>
<path d="M269.682 300.491C270.072 300.313 270.326 300.176 270.444 299.564C270.566 300.176 270.825 300.313 271.225 300.487C270.825 300.665 270.566 300.849 270.449 301.461C270.326 300.849 270.072 300.665 269.682 300.491Z" fill="white"/>
<path d="M267.969 300.491C268.36 300.313 268.614 300.176 268.731 299.564C268.854 300.176 269.113 300.313 269.512 300.487C269.113 300.665 268.854 300.849 268.736 301.461C268.614 300.849 268.36 300.665 267.969 300.491Z" fill="white"/>
<path d="M262.742 300.491C263.132 300.313 263.387 300.176 263.504 299.564C263.626 300.176 263.885 300.313 264.285 300.487C263.885 300.665 263.626 300.849 263.509 301.461C263.387 300.849 263.132 300.665 262.742 300.491Z" fill="white"/>
<path d="M311.006 300.51C311.396 300.331 311.65 300.195 311.768 299.583C311.89 300.195 312.149 300.331 312.549 300.505C312.149 300.684 311.89 300.867 311.773 301.479C311.65 300.867 311.396 300.684 311.006 300.51Z" fill="white"/>
<path d="M344.378 300.491C344.769 300.313 345.023 300.176 345.14 299.564C345.263 300.176 345.521 300.313 345.921 300.487C345.521 300.665 345.263 300.849 345.145 301.461C345.023 300.849 344.769 300.665 344.378 300.491Z" fill="white"/>
<path d="M121.875 211.327C123.733 210.48 124.952 209.826 125.521 206.904C126.105 209.826 127.342 210.475 129.252 211.313C127.352 212.16 126.109 213.035 125.54 215.957C124.957 213.035 123.738 212.164 121.88 211.327H121.875Z" fill="white"/>
<path d="M125.526 205.963V202.392" stroke="white" stroke-width="0.117624" stroke-miterlimit="10"/>
<path d="M125.526 220.473V216.897" stroke="white" stroke-width="0.117624" stroke-miterlimit="10"/>
<path d="M130.415 211.341H133.986" stroke="white" stroke-width="0.117624" stroke-miterlimit="10"/>
<path d="M117.137 211.341H120.713" stroke="white" stroke-width="0.117624" stroke-miterlimit="10"/>
<path d="M306.818 249.305C308.677 248.459 309.895 247.805 310.464 244.883C311.048 247.805 312.285 248.454 314.196 249.291C312.295 250.138 311.053 251.013 310.483 253.935C309.9 251.013 308.681 250.143 306.823 249.305H306.818Z" fill="white"/>
<path d="M310.465 243.942V240.366" stroke="white" stroke-width="0.117624" stroke-miterlimit="10"/>
<path d="M310.465 258.453V254.877" stroke="white" stroke-width="0.117624" stroke-miterlimit="10"/>
<path d="M315.353 249.315H318.929" stroke="white" stroke-width="0.117624" stroke-miterlimit="10"/>
<path d="M302.08 249.315H305.651" stroke="white" stroke-width="0.117624" stroke-miterlimit="10"/>
<path d="M266.798 316.728L257.675 300.576C259.293 300.524 260.766 300.205 262.088 299.602C263.41 299.005 264.469 298.106 265.264 296.911C265.857 296.022 266.29 294.973 266.511 293.105L261.9 294.526C261.872 294.686 261.9 294.507 261.872 294.662L265.25 294.272L261.387 296.389C261.114 297.104 260.775 297.753 260.366 298.332C259.566 299.503 258.498 300.473 257.153 300.473H248.928V282.853H256.889C258.334 282.853 259.482 283.436 260.328 284.608C261.175 285.779 261.698 287.002 261.9 288.273C262.126 289.543 262.234 290.602 262.234 291.449C262.234 292.295 262.163 293.067 262.027 293.876L266.431 291.463C266.308 288.414 265.509 286.155 264.027 284.72C262.408 283.149 260.027 282.363 256.884 282.363H242.341C243.386 282.838 244.073 283.883 244.397 285.506V316.611C244.073 318.229 243.386 319.264 242.341 319.716H250.942C249.945 319.269 249.272 318.295 248.924 316.799V300.576H252.551L262.681 318.521C262.333 319.071 261.881 319.467 261.335 319.716H270.383C269.014 319.344 267.814 318.347 266.793 316.724L266.798 316.728Z" fill="white"/>
<path d="M187.947 287.322L188.596 294.878L237.909 278.138L189.862 288.536C189.862 288.536 188.3 288.475 187.952 287.322H187.947Z" fill="white"/>
<path d="M163.152 289.091L161.251 284.315L121.39 303.361L162.201 288.597C162.201 288.597 162.94 288.559 163.152 289.091Z" fill="white"/>
<path d="M155.154 255.538C155.154 255.538 155.568 255.515 155.699 255.905L154.495 252.391L140.526 261.264C140.869 261.504 141.222 261.749 141.584 261.993L155.154 255.534V255.538Z" fill="white"/>
<path d="M168.878 296.096C167.48 289.005 164.271 282.635 159.256 276.993C154.287 271.348 148.834 266.647 142.901 262.883C142.45 262.582 142.012 262.29 141.579 261.999L132.776 266.191L140.521 261.269C134.814 257.284 131.355 254.01 130.165 251.455C128.862 248.514 128.212 246.246 128.212 244.652C128.212 243.057 128.645 241.565 129.516 240.309C131.299 237.754 133.421 236.211 135.882 235.679C138.342 235.147 140.224 234.884 141.528 234.884C143.889 234.884 146.303 235.369 148.764 236.333C152.528 237.829 155.468 240.652 157.59 244.797V244.868C157.83 245.4 157.953 245.903 157.953 246.388C157.953 247.013 157.783 247.592 157.444 248.124C156.866 249.135 156.047 249.907 154.984 250.439L159.251 250.368H163.594C161.858 249.695 160.578 248.34 159.759 246.317C157.976 240.624 155.13 237.105 151.22 235.754C147.362 234.404 143.984 233.727 141.09 233.727C138.676 233.727 136.244 234.065 133.783 234.738C128.382 236.187 124.496 238.403 122.134 241.396C119.772 244.388 118.586 247.235 118.586 249.935C118.586 251.963 119.071 254.132 120.035 256.447C122.256 261.895 128.551 267.734 138.921 273.959C143.118 276.612 146.882 279.746 150.208 283.364C152.321 285.66 154.099 288.187 155.548 290.948L160.07 289.448L157.007 293.771C157.727 295.202 157.186 294.402 157.731 295.954C158.602 298.754 159.035 301.403 159.035 303.915C159.035 307.195 158.287 310.187 156.79 312.888C154.137 317.616 150.519 320.966 145.936 322.947C141.353 324.975 136.964 325.986 132.767 325.986C131.224 325.986 129.633 325.864 127.991 325.624C122.058 324.758 116.85 321.935 112.361 317.16C107.826 312.431 105.055 305.411 104.038 296.105H103.968C105.271 307.345 108.452 315.715 113.519 321.211C118.534 326.758 123.093 329.797 127.196 330.329C131.294 330.861 134.117 331.124 135.66 331.124C140.629 331.124 145.503 330.037 150.279 327.868C156.452 325.022 161.157 321.117 164.389 316.148C167.621 311.227 169.235 306.089 169.235 300.735C169.235 299.239 169.113 297.695 168.873 296.105L168.878 296.096Z" fill="white"/>
<path d="M203.304 282.584C203.412 282.174 202.984 281.93 202.984 281.93H209.19C209.19 281.93 204.8 282.588 203.299 282.584H203.304Z" fill="white"/>
<path d="M208.475 281.995H204.01V287.792H208.475V281.995Z" fill="white"/>
<path d="M307.985 320.906C307.486 320.633 306.027 319.382 307.241 317.519C307.241 317.514 307.241 317.509 307.241 317.5L300.41 297.518L294.933 295.805L295.869 298.497L299.196 298.111L296.537 300.473L300.405 311.553C300.414 311.586 300.377 311.609 300.353 311.59L287.593 300.477C287.593 300.477 287.579 300.454 287.584 300.44C289.362 294.977 288.939 296.478 291.865 287.129C291.875 287.096 291.917 287.096 291.931 287.129L294.942 295.801L299.53 294.907L295.239 295.405L298.998 293.345L295.225 282.307C295.225 282.307 295.206 282.283 295.192 282.283H293.333C293.333 282.283 293.305 282.293 293.3 282.307C285.805 305.846 281.853 317.862 281.458 318.361C281.105 318.831 280.526 319.26 279.722 319.645C279.689 319.659 279.698 319.707 279.731 319.707H283.604C283.636 319.707 283.651 319.664 283.618 319.645C282.898 319.184 282.347 317.34 282.347 316.846V316.808C282.371 316.239 286.257 304.373 287.523 300.59C287.532 300.567 287.556 300.562 287.575 300.576L300.626 312.221C300.626 312.221 300.636 312.23 300.636 312.235L302.654 318.173C302.677 318.248 302.692 318.309 302.692 318.361C302.692 318.742 301.435 319.382 299.266 319.194C299.224 319.194 299.215 319.25 299.252 319.26L307.11 320.963L307.651 321.015C307.702 320.953 308.446 321.142 307.989 320.902L307.985 320.906Z" fill="white"/>
<path d="M257.402 266.47C259.26 265.623 260.479 264.969 261.048 262.047C261.632 264.969 262.869 265.618 264.779 266.455C262.878 267.302 261.636 268.177 261.067 271.099C260.484 268.177 259.265 267.307 257.407 266.47H257.402Z" fill="white"/>
<path d="M261.048 261.106V257.53" stroke="white" stroke-width="0.117624" stroke-miterlimit="10"/>
<path d="M261.048 275.616V272.04" stroke="white" stroke-width="0.117624" stroke-miterlimit="10"/>
<path d="M265.937 266.479H269.513" stroke="white" stroke-width="0.117624" stroke-miterlimit="10"/>
<path d="M252.664 266.479H256.24" stroke="white" stroke-width="0.117624" stroke-miterlimit="10"/>
<path d="M253.713 167.702C255.571 166.855 256.79 166.201 257.359 163.279C257.943 166.201 259.18 166.85 261.09 167.688C259.189 168.535 257.947 169.41 257.378 172.332C256.795 169.41 255.576 168.539 253.718 167.702H253.713Z" fill="white"/>
<path d="M257.365 162.338V158.763" stroke="white" stroke-width="0.117624" stroke-miterlimit="10"/>
<path d="M257.365 176.845V173.273" stroke="white" stroke-width="0.117624" stroke-miterlimit="10"/>
<path d="M262.253 167.712H265.824" stroke="white" stroke-width="0.117624" stroke-miterlimit="10"/>
<path d="M248.975 167.712H252.551" stroke="white" stroke-width="0.117624" stroke-miterlimit="10"/>
<path d="M229.436 248.572C229.534 248.821 229.967 248.915 230.734 248.854C231.506 248.793 232.499 248.595 233.712 248.266C234.926 247.937 236.244 247.494 237.66 246.949C239.076 246.403 240.342 245.838 241.466 245.264C242.591 244.69 243.456 244.168 244.063 243.693C244.675 243.217 244.929 242.86 244.835 242.606C244.741 242.352 244.303 242.258 243.532 242.319C242.76 242.38 241.767 242.578 240.553 242.907C239.335 243.236 238.022 243.679 236.606 244.224C235.19 244.77 233.924 245.335 232.8 245.909C231.675 246.483 230.809 247.005 230.198 247.48C229.586 247.955 229.332 248.318 229.431 248.572H229.436Z" stroke="white" stroke-width="0.0470497" stroke-miterlimit="10"/>
</svg>
